<?xml version="1.0" encoding="UTF-8" standalone="no"?>
<!-- Created with Inkscape (http://www.inkscape.org/) -->

<svg
   xmlns:dc="http://purl.org/dc/elements/1.1/"
   xmlns:cc="http://creativecommons.org/ns#"
   xmlns:rdf="http://www.w3.org/1999/02/22-rdf-syntax-ns#"
   xmlns:svg="http://www.w3.org/2000/svg"
   xmlns="http://www.w3.org/2000/svg"
   xmlns:sodipodi="http://sodipodi.sourceforge.net/DTD/sodipodi-0.dtd"
   xmlns:inkscape="http://www.inkscape.org/namespaces/inkscape"
   width="134.3241mm"
   height="104.39455mm"
   viewBox="0 0 134.3241 104.39455"
   version="1.1"
   id="svg8"
   inkscape:version="0.92.3 (unknown)"
   sodipodi:docname="quad.svg"
   inkscape:export-filename="/home/tom/Documents/sites/tomchaplin/assets/portfolio/2018-10-04-Control-Systems-in-Kerbal-Space-Program/quad.png"
   inkscape:export-xdpi="96"
   inkscape:export-ydpi="96">
  <defs
     id="defs2">
    <marker
       inkscape:stockid="Arrow2Mend"
       orient="auto"
       refY="0"
       refX="0"
       id="Arrow2Mend"
       style="overflow:visible"
       inkscape:isstock="true">
      <path
         id="path4557"
         style="fill:#000000;fill-opacity:0.5;fill-rule:evenodd;stroke:#000000;stroke-width:0.625;stroke-linejoin:round;stroke-opacity:0.5"
         d="M 8.7185878,4.0337352 -2.2072895,0.01601326 8.7185884,-4.0017078 c -1.7454984,2.3720609 -1.7354408,5.6174519 -6e-7,8.035443 z"
         transform="scale(-0.6)"
         inkscape:connector-curvature="0" />
    </marker>
    <marker
       inkscape:stockid="Arrow2Lend"
       orient="auto"
       refY="0"
       refX="0"
       id="marker7270"
       style="overflow:visible"
       inkscape:isstock="true">
      <path
         id="path7268"
         style="fill:#000000;fill-opacity:1;fill-rule:evenodd;stroke:#000000;stroke-width:0.625;stroke-linejoin:round;stroke-opacity:1"
         d="M 8.7185878,4.0337352 -2.2072895,0.01601326 8.7185884,-4.0017078 c -1.7454984,2.3720609 -1.7354408,5.6174519 -6e-7,8.035443 z"
         transform="matrix(-1.1,0,0,-1.1,-1.1,0)"
         inkscape:connector-curvature="0" />
    </marker>
    <marker
       inkscape:stockid="Arrow2Lend"
       orient="auto"
       refY="0"
       refX="0"
       id="marker7182"
       style="overflow:visible"
       inkscape:isstock="true">
      <path
         id="path7180"
         style="fill:#000000;fill-opacity:1;fill-rule:evenodd;stroke:#000000;stroke-width:0.625;stroke-linejoin:round;stroke-opacity:1"
         d="M 8.7185878,4.0337352 -2.2072895,0.01601326 8.7185884,-4.0017078 c -1.7454984,2.3720609 -1.7354408,5.6174519 -6e-7,8.035443 z"
         transform="matrix(-1.1,0,0,-1.1,-1.1,0)"
         inkscape:connector-curvature="0" />
    </marker>
    <marker
       inkscape:isstock="true"
       style="overflow:visible"
       id="marker7100"
       refX="0"
       refY="0"
       orient="auto"
       inkscape:stockid="Arrow1Lend">
      <path
         transform="matrix(-0.8,0,0,-0.8,-10,0)"
         style="fill:#000000;fill-opacity:1;fill-rule:evenodd;stroke:#000000;stroke-width:1.00000003pt;stroke-opacity:1"
         d="M 0,0 5,-5 -12.5,0 5,5 Z"
         id="path7098"
         inkscape:connector-curvature="0" />
    </marker>
    <marker
       inkscape:stockid="Arrow1Lend"
       orient="auto"
       refY="0"
       refX="0"
       id="marker7018"
       style="overflow:visible"
       inkscape:isstock="true">
      <path
         id="path7016"
         d="M 0,0 5,-5 -12.5,0 5,5 Z"
         style="fill:#000000;fill-opacity:1;fill-rule:evenodd;stroke:#000000;stroke-width:1.00000003pt;stroke-opacity:1"
         transform="matrix(-0.8,0,0,-0.8,-10,0)"
         inkscape:connector-curvature="0" />
    </marker>
    <marker
       inkscape:isstock="true"
       style="overflow:visible"
       id="marker5055"
       refX="0"
       refY="0"
       orient="auto"
       inkscape:stockid="Arrow1Lend"
       inkscape:collect="always">
      <path
         transform="matrix(-0.8,0,0,-0.8,-10,0)"
         style="fill:#ff0000;fill-opacity:1;fill-rule:evenodd;stroke:#ff0000;stroke-width:1.00000003pt;stroke-opacity:1"
         d="M 0,0 5,-5 -12.5,0 5,5 Z"
         id="path5053"
         inkscape:connector-curvature="0" />
    </marker>
    <marker
       inkscape:stockid="Arrow2Lend"
       orient="auto"
       refY="0"
       refX="0"
       id="Arrow2Lend"
       style="overflow:visible"
       inkscape:isstock="true">
      <path
         id="path4551"
         style="fill:#000000;fill-opacity:1;fill-rule:evenodd;stroke:#000000;stroke-width:0.625;stroke-linejoin:round;stroke-opacity:1"
         d="M 8.7185878,4.0337352 -2.2072895,0.01601326 8.7185884,-4.0017078 c -1.7454984,2.3720609 -1.7354408,5.6174519 -6e-7,8.035443 z"
         transform="matrix(-1.1,0,0,-1.1,-1.1,0)"
         inkscape:connector-curvature="0" />
    </marker>
    <marker
       inkscape:stockid="Arrow1Lstart"
       orient="auto"
       refY="0"
       refX="0"
       id="marker4852"
       style="overflow:visible"
       inkscape:isstock="true">
      <path
         id="path4850"
         d="M 0,0 5,-5 -12.5,0 5,5 Z"
         style="fill:#000000;fill-opacity:1;fill-rule:evenodd;stroke:#000000;stroke-width:1.00000003pt;stroke-opacity:1"
         transform="matrix(0.8,0,0,0.8,10,0)"
         inkscape:connector-curvature="0" />
    </marker>
    <marker
       inkscape:stockid="Arrow1Lend"
       orient="auto"
       refY="0"
       refX="0"
       id="marker4818"
       style="overflow:visible"
       inkscape:isstock="true"
       inkscape:collect="always">
      <path
         id="path4816"
         d="M 0,0 5,-5 -12.5,0 5,5 Z"
         style="fill:#000000;fill-opacity:1;fill-rule:evenodd;stroke:#000000;stroke-width:1.00000003pt;stroke-opacity:1"
         transform="matrix(-0.8,0,0,-0.8,-10,0)"
         inkscape:connector-curvature="0" />
    </marker>
    <marker
       inkscape:stockid="Arrow1Lend"
       orient="auto"
       refY="0"
       refX="0"
       id="Arrow1Lend"
       style="overflow:visible"
       inkscape:isstock="true">
      <path
         id="path4533"
         d="M 0,0 5,-5 -12.5,0 5,5 Z"
         style="fill-rule:evenodd;stroke:#000000;stroke-width:1.00000003pt"
         transform="matrix(-0.8,0,0,-0.8,-10,0)"
         inkscape:connector-curvature="0" />
    </marker>
    <marker
       inkscape:stockid="Arrow1Lstart"
       orient="auto"
       refY="0"
       refX="0"
       id="Arrow1Lstart"
       style="overflow:visible"
       inkscape:isstock="true">
      <path
         id="path4530"
         d="M 0,0 5,-5 -12.5,0 5,5 Z"
         style="fill-rule:evenodd;stroke:#000000;stroke-width:1.00000003pt"
         transform="matrix(0.8,0,0,0.8,10,0)"
         inkscape:connector-curvature="0" />
    </marker>
    <marker
       inkscape:isstock="true"
       style="overflow:visible"
       id="marker5055-2"
       refX="0"
       refY="0"
       orient="auto"
       inkscape:stockid="Arrow1Lend">
      <path
         inkscape:connector-curvature="0"
         transform="matrix(-0.8,0,0,-0.8,-10,0)"
         style="fill:#ff0000;fill-opacity:1;fill-rule:evenodd;stroke:#ff0000;stroke-width:1.00000003pt;stroke-opacity:1"
         d="M 0,0 5,-5 -12.5,0 5,5 Z"
         id="path5053-9" />
    </marker>
    <marker
       inkscape:isstock="true"
       style="overflow:visible"
       id="marker5055-27"
       refX="0"
       refY="0"
       orient="auto"
       inkscape:stockid="Arrow1Lend">
      <path
         inkscape:connector-curvature="0"
         transform="matrix(-0.8,0,0,-0.8,-10,0)"
         style="fill:#ff0000;fill-opacity:1;fill-rule:evenodd;stroke:#ff0000;stroke-width:1.00000003pt;stroke-opacity:1"
         d="M 0,0 5,-5 -12.5,0 5,5 Z"
         id="path5053-0" />
    </marker>
    <marker
       inkscape:isstock="true"
       style="overflow:visible"
       id="marker5055-27-3"
       refX="0"
       refY="0"
       orient="auto"
       inkscape:stockid="Arrow1Lend">
      <path
         inkscape:connector-curvature="0"
         transform="matrix(-0.8,0,0,-0.8,-10,0)"
         style="fill:#ff0000;fill-opacity:1;fill-rule:evenodd;stroke:#ff0000;stroke-width:1.00000003pt;stroke-opacity:1"
         d="M 0,0 5,-5 -12.5,0 5,5 Z"
         id="path5053-0-6" />
    </marker>
    <marker
       inkscape:stockid="Arrow2Mend"
       orient="auto"
       refY="0"
       refX="0"
       id="Arrow2Mend-7"
       style="overflow:visible"
       inkscape:isstock="true">
      <path
         inkscape:connector-curvature="0"
         id="path4557-5"
         style="fill:#000000;fill-opacity:1;fill-rule:evenodd;stroke:#000000;stroke-width:0.625;stroke-linejoin:round;stroke-opacity:1"
         d="M 8.7185878,4.0337352 -2.2072895,0.01601326 8.7185884,-4.0017078 c -1.7454984,2.3720609 -1.7354408,5.6174519 -6e-7,8.035443 z"
         transform="scale(-0.6)" />
    </marker>
    <marker
       inkscape:stockid="Arrow2Mend"
       orient="auto"
       refY="0"
       refX="0"
       id="Arrow2Mend-2"
       style="overflow:visible"
       inkscape:isstock="true">
      <path
         inkscape:connector-curvature="0"
         id="path4557-2"
         style="fill:#000000;fill-opacity:1;fill-rule:evenodd;stroke:#000000;stroke-width:0.625;stroke-linejoin:round;stroke-opacity:1"
         d="M 8.7185878,4.0337352 -2.2072895,0.01601326 8.7185884,-4.0017078 c -1.7454984,2.3720609 -1.7354408,5.6174519 -6e-7,8.035443 z"
         transform="scale(-0.6)" />
    </marker>
    <marker
       inkscape:stockid="Arrow2Mend"
       orient="auto"
       refY="0"
       refX="0"
       id="Arrow2Mend-9"
       style="overflow:visible"
       inkscape:isstock="true">
      <path
         inkscape:connector-curvature="0"
         id="path4557-7"
         style="fill:#000000;fill-opacity:0.5;fill-rule:evenodd;stroke:#000000;stroke-width:0.625;stroke-linejoin:round;stroke-opacity:0.5"
         d="M 8.7185878,4.0337352 -2.2072895,0.01601326 8.7185884,-4.0017078 c -1.7454984,2.3720609 -1.7354408,5.6174519 -6e-7,8.035443 z"
         transform="scale(-0.6)" />
    </marker>
    <marker
       inkscape:stockid="Arrow2Mend"
       orient="auto"
       refY="0"
       refX="0"
       id="Arrow2Mend-6"
       style="overflow:visible"
       inkscape:isstock="true">
      <path
         inkscape:connector-curvature="0"
         id="path4557-1"
         style="fill:#000000;fill-opacity:0.5;fill-rule:evenodd;stroke:#000000;stroke-width:0.625;stroke-linejoin:round;stroke-opacity:0.5"
         d="M 8.7185878,4.0337352 -2.2072895,0.01601326 8.7185884,-4.0017078 c -1.7454984,2.3720609 -1.7354408,5.6174519 -6e-7,8.035443 z"
         transform="scale(-0.6)" />
    </marker>
  </defs>
  <sodipodi:namedview
     id="base"
     pagecolor="#ffffff"
     bordercolor="#666666"
     borderopacity="1.0"
     inkscape:pageopacity="0.0"
     inkscape:pageshadow="2"
     inkscape:zoom="2.0000001"
     inkscape:cx="273.81024"
     inkscape:cy="191.01857"
     inkscape:document-units="mm"
     inkscape:current-layer="g6872"
     showgrid="false"
     inkscape:window-width="2560"
     inkscape:window-height="1412"
     inkscape:window-x="0"
     inkscape:window-y="0"
     inkscape:window-maximized="1"
     fit-margin-top="10"
     fit-margin-left="10"
     fit-margin-right="10"
     fit-margin-bottom="10"
     units="mm" />
  <metadata
     id="metadata5">
    <rdf:RDF>
      <cc:Work
         rdf:about="">
        <dc:format>image/svg+xml</dc:format>
        <dc:type
           rdf:resource="http://purl.org/dc/dcmitype/StillImage" />
        <dc:title />
      </cc:Work>
    </rdf:RDF>
  </metadata>
  <g
     inkscape:label="Layer 1"
     inkscape:groupmode="layer"
     id="layer1"
     transform="translate(-33.585206,-102.65979)">
    <g
       id="g4954"
       transform="matrix(0.75705771,0,0,0.75705771,45.281783,30.767559)">
      <path
         inkscape:connector-curvature="0"
         id="path10"
         d="m 72.69731,108.30772 v 63.0756 h 61.47199"
         style="fill:none;stroke:#000000;stroke-width:0.07005946;stroke-linecap:butt;stroke-linejoin:miter;stroke-miterlimit:4;stroke-dasharray:0.5604757, 0.5604757;stroke-dashoffset:0;stroke-opacity:1;marker-start:url(#marker4852);marker-end:url(#Arrow2Lend)" />
      <path
         inkscape:connector-curvature="0"
         id="path12"
         d="m 72.69731,171.38332 43.69856,-43.69857"
         style="fill:none;stroke:#000000;stroke-width:0.07005946;stroke-linecap:butt;stroke-linejoin:miter;stroke-miterlimit:4;stroke-dasharray:0.5604757, 0.5604757;stroke-dashoffset:0;stroke-opacity:1;marker-end:url(#marker4818)" />
    </g>
    <path
       style="fill:none;stroke:#000000;stroke-width:0.16543311px;stroke-linecap:butt;stroke-linejoin:miter;stroke-opacity:1"
       d="m 100.61323,160.26681 48.20765,-19.82519"
       id="path4956"
       inkscape:connector-curvature="0" />
    <path
       style="fill:none;stroke:#000000;stroke-width:0.16543311px;stroke-linecap:butt;stroke-linejoin:miter;stroke-opacity:1"
       d="M 52.424437,180.04615 100.63209,160.22096"
       id="path4956-6"
       inkscape:connector-curvature="0" />
    <path
       style="fill:none;stroke:#000000;stroke-width:0.23665856px;stroke-linecap:butt;stroke-linejoin:miter;stroke-opacity:1"
       d="M 100.62398,160.27067 88.473851,132.97819"
       id="path4997"
       inkscape:connector-curvature="0" />
    <path
       style="fill:none;stroke:#000000;stroke-width:0.26458332px;stroke-linecap:butt;stroke-linejoin:miter;stroke-opacity:1"
       d="m 113.49022,192.45451 -12.87699,-32.1877"
       id="path4997-7"
       inkscape:connector-curvature="0" />
    <ellipse
       style="fill:none;stroke:#000000;stroke-width:0.2;stroke-miterlimit:4;stroke-dasharray:0.02, 0.02;stroke-dashoffset:0;stroke-opacity:1"
       id="path5014"
       cx="88.492943"
       cy="132.68938"
       rx="8.9802551"
       ry="4.5369" />
    <ellipse
       style="fill:none;stroke:#000000;stroke-width:0.2;stroke-miterlimit:4;stroke-dasharray:0.02, 0.02;stroke-dashoffset:0;stroke-opacity:1"
       id="path5014-5"
       cx="148.82904"
       cy="140.50034"
       rx="8.9802561"
       ry="4.5369" />
    <ellipse
       style="fill:none;stroke:#000000;stroke-width:0.2;stroke-miterlimit:4;stroke-dasharray:0.02, 0.02;stroke-dashoffset:0;stroke-opacity:1"
       id="path5014-3"
       cx="113.46929"
       cy="192.41743"
       rx="8.9802561"
       ry="4.5369" />
    <ellipse
       style="fill:none;stroke:#000000;stroke-width:0.2;stroke-miterlimit:4;stroke-dasharray:0.02, 0.02;stroke-dashoffset:0;stroke-opacity:1"
       id="path5014-56"
       cx="52.665462"
       cy="180.0696"
       rx="8.9802561"
       ry="4.5369" />
    <path
       style="fill:none;stroke:#ff0000;stroke-width:0.26458332px;stroke-linecap:butt;stroke-linejoin:miter;stroke-opacity:1;marker-end:url(#marker5055)"
       d="M 88.47385,132.97819 V 120.48184"
       id="path5045"
       inkscape:connector-curvature="0" />
    <path
       style="fill:none;stroke:#ff0000;stroke-width:0.26458332px;stroke-linecap:butt;stroke-linejoin:miter;stroke-opacity:1;marker-end:url(#marker5055-2)"
       d="M 148.82088,140.44162 V 127.94527"
       id="path5045-1"
       inkscape:connector-curvature="0" />
    <path
       style="fill:none;stroke:#ff0000;stroke-width:0.26458332px;stroke-linecap:butt;stroke-linejoin:miter;stroke-opacity:1;marker-end:url(#marker5055-27)"
       d="M 113.49022,192.45451 V 179.95816"
       id="path5045-9"
       inkscape:connector-curvature="0" />
    <path
       style="fill:none;stroke:#ff0000;stroke-width:0.26458332px;stroke-linecap:butt;stroke-linejoin:miter;stroke-opacity:1;marker-end:url(#marker5055-27-3)"
       d="M 52.424437,180.04615 V 167.5498"
       id="path5045-9-0"
       inkscape:connector-curvature="0" />
    <circle
       style="fill:#71ce54;fill-opacity:1;stroke:none;stroke-width:0.5;stroke-miterlimit:4;stroke-dasharray:none;stroke-dashoffset:0;stroke-opacity:1"
       id="path6795"
       cx="99.68177"
       cy="160.14427"
       r="4.1671872" />
    <g
       inkscape:groupmode="layer"
       id="layer4"
       inkscape:label="Below">
      <path
         style="fill:none;stroke:#000000;stroke-width:0.26499999;stroke-linecap:butt;stroke-linejoin:miter;stroke-miterlimit:4;stroke-dasharray:none;stroke-opacity:0.5;marker-end:url(#Arrow2Mend)"
         d="m 135.20417,161.87521 c 0,0 3.06358,3.48452 3.3676,-1.54348 0.30402,-5.02801 -2.57247,-3.88209 -3.32082,-2.29184"
         id="path7008"
         inkscape:connector-curvature="0" />
      <path
         style="fill:none;stroke:#000000;stroke-width:0.26499999;stroke-linecap:butt;stroke-linejoin:miter;stroke-miterlimit:4;stroke-dasharray:none;stroke-opacity:0.5;marker-end:url(#Arrow2Mend-9)"
         d="m 127.17604,137.59504 c 0,0 -3.06358,3.48452 -3.3676,-1.54348 -0.30402,-5.02801 2.57247,-3.88209 3.32082,-2.29184"
         id="path7008-3"
         inkscape:connector-curvature="0" />
      <path
         style="fill:none;stroke:#000000;stroke-width:0.26499999;stroke-linecap:butt;stroke-linejoin:miter;stroke-miterlimit:4;stroke-dasharray:none;stroke-opacity:0.5;marker-end:url(#Arrow2Mend-6)"
         d="m 98.369392,141.82185 c 0,0 -3.48452,-3.06358 1.54348,-3.3676 5.027998,-0.30402 3.882078,2.57247 2.291828,3.32082"
         id="path7008-2"
         inkscape:connector-curvature="0" />
      <text
         xml:space="preserve"
         style="font-style:normal;font-weight:normal;font-size:2.89121938px;line-height:1.25;font-family:sans-serif;letter-spacing:0px;word-spacing:0px;fill:#000000;fill-opacity:1;stroke:none;stroke-width:0.07228048"
         x="139.5408"
         y="156.79562"
         id="text11254"><tspan
           sodipodi:role="line"
           id="tspan11252"
           x="139.5408"
           y="156.79562"
           style="stroke-width:0.07228048">Pitch</tspan></text>
      <text
         xml:space="preserve"
         style="font-style:normal;font-weight:normal;font-size:2.89121938px;line-height:1.25;font-family:sans-serif;letter-spacing:0px;word-spacing:0px;fill:#000000;fill-opacity:1;stroke:none;stroke-width:0.07228049"
         x="127.98315"
         y="135.92838"
         id="text11254-9"><tspan
           sodipodi:role="line"
           id="tspan11252-3"
           x="127.98315"
           y="135.92838"
           style="stroke-width:0.07228049">Roll</tspan></text>
      <text
         xml:space="preserve"
         style="font-style:normal;font-weight:normal;font-size:2.89121938px;line-height:1.25;font-family:sans-serif;letter-spacing:0px;word-spacing:0px;fill:#000000;fill-opacity:1;stroke:none;stroke-width:0.07228049"
         x="103.16204"
         y="137.60393"
         id="text11254-1"><tspan
           sodipodi:role="line"
           id="tspan11252-9"
           x="103.16204"
           y="137.60393"
           style="stroke-width:0.07228049">Yaw</tspan></text>
    </g>
    <g
       id="g6872"
       transform="translate(-16.276714,-8.1383571)">
      <g
         id="g6935"
         transform="translate(20.29912,9.214117)">
        <g
           style="fill:#000008;fill-opacity:0.9848485;stroke:#000000;stroke-opacity:1"
           transform="translate(-4.0224066,-1.3563929)"
           id="g6914">
          <g
             style="fill:#000008;fill-opacity:0.9848485;stroke:#000000;stroke-opacity:1"
             transform="translate(0.04677217,0.1403165)"
             id="g6858">
            <path
               style="fill:#000008;fill-opacity:0.9848485;stroke:#000000;stroke-width:0.26458332px;stroke-linecap:butt;stroke-linejoin:miter;stroke-opacity:1"
               d="m 95.274904,160.09786 c 0,0 0.18709,-4.58367 4.349811,-4.58367"
               id="path6839"
               inkscape:connector-curvature="0" />
            <path
               style="fill:#000008;fill-opacity:0.9848485;stroke:#000000;stroke-width:0.26458332px;stroke-linecap:butt;stroke-linejoin:miter;stroke-opacity:1"
               d="m 103.97453,160.09786 c 0,0 -0.18709,-4.58367 -4.349815,-4.58367"
               id="path6839-6"
               inkscape:connector-curvature="0" />
          </g>
          <path
             inkscape:connector-curvature="0"
             id="path6866"
             d="M 95.321674,160.23817 H 104.0213"
             style="fill:#000008;fill-opacity:0.9848485;stroke:#000000;stroke-width:0.26458332px;stroke-linecap:butt;stroke-linejoin:miter;stroke-opacity:1" />
        </g>
        <path
           transform="matrix(0.26458333,0,0,0.26458333,16.276714,8.1383571)"
           inkscape:connector-curvature="0"
           id="path6920"
           d="m 284.64197,568.76052 c 0.23571,-0.2581 3.67723,-3.89749 7.64783,-8.08753 6.02952,-6.36274 7.29765,-7.61825 7.69482,-7.61825 0.39673,0 1.61474,1.20134 7.34843,7.24785 3.78008,3.98631 7.23523,7.6257 7.67811,8.08753 l 0.80523,0.83969 H 300.0149 284.21341 Z"
           style="fill:#000008;fill-opacity:0.9848485;stroke:#000000;stroke-width:0.33406621;stroke-miterlimit:4;stroke-dasharray:none;stroke-dashoffset:0;stroke-opacity:1" />
        <path
           transform="matrix(0.26458333,0,0,0.26458333,16.276714,8.1383571)"
           inkscape:connector-curvature="0"
           id="path6926"
           d="m 283.56793,569.84853 c 0,-0.14584 -0.0795,-0.26517 -0.17678,-0.26517 -0.29764,0 -0.19866,-1.18564 0.27544,-3.2995 1.36467,-6.08463 4.40965,-10.43963 8.8626,-12.6755 1.46709,-0.73664 3.87472,-1.36355 5.66701,-1.4756 2.03317,-0.12712 2.07812,0.004 0.53033,1.54831 l -1.10485,1.10229 1.10014,-0.92191 c 0.82153,-0.68844 1.19087,-0.89312 1.45841,-0.8082 0.20709,0.0657 0.35826,0.0341 0.35826,-0.075 0,-0.10378 -0.11932,-0.18869 -0.26516,-0.18869 -0.15331,0 -0.26517,-0.15999 -0.26517,-0.37926 0,-0.36879 0.0476,-0.37648 1.72358,-0.2785 1.88368,0.11012 4.23587,0.71358 5.7554,1.47654 4.69022,2.355 7.96587,7.36533 9.06585,13.86682 l 0.31551,1.86485 -0.38683,0.38683 -0.38683,0.38683 h -16.26345 c -14.33856,0 -16.26346,-0.0314 -16.26346,-0.26516 z m 1.85616,-2.03293 c 0.67537,-0.68059 1.18818,-1.23744 1.13956,-1.23744 -0.0486,0 -0.64097,0.55685 -1.31634,1.23744 -0.67538,0.68059 -1.18818,1.23743 -1.13957,1.23743 0.0486,0 0.64097,-0.55684 1.31635,-1.23743 z m 29.78687,0.48009 c 0,-0.0276 -0.45741,-0.48504 -1.01647,-1.01646 l -1.01646,-0.96624 0.96623,1.01647 c 0.89766,0.94433 1.0667,1.09745 1.0667,0.96623 z m -26.69328,-3.75046 c 0.62636,-0.63198 1.09906,-1.14905 1.05044,-1.14905 -0.0486,0 -0.60086,0.51707 -1.22722,1.14905 -0.62636,0.63197 -1.09906,1.14905 -1.05045,1.14905 0.0486,0 0.60087,-0.51708 1.22723,-1.14905 z m 23.33452,0.21432 c 0,-0.028 -0.41763,-0.44559 -0.92808,-0.92808 l -0.92807,-0.87723 0.87723,0.92807 c 0.81515,0.86239 0.97892,1.00915 0.97892,0.87724 z m -20.06415,-3.66147 c 0.47882,-0.48613 0.83081,-0.88388 0.7822,-0.88388 -0.0486,0 -0.48015,0.39775 -0.95898,0.88388 -0.47883,0.48614 -0.83082,0.88388 -0.7822,0.88388 0.0486,0 0.48015,-0.39774 0.95898,-0.88388 z m 16.88217,0.30332 c 0,-0.0276 -0.45741,-0.48504 -1.01646,-1.01646 l -1.01647,-0.96624 0.96623,1.01647 c 0.89766,0.94433 1.0667,1.09744 1.0667,0.96623 z m -11.45428,-6.04856 c 0.10366,-0.19446 0.15609,-0.31378 0.11653,-0.26517 -0.0396,0.0486 -0.78437,0.84411 -1.65513,1.76777 l -1.58319,1.67938 1.46667,-1.41421 c 0.80666,-0.77782 1.55147,-1.57332 1.65512,-1.76777 z m 8.2723,2.69194 c 0,-0.0264 -0.69606,-0.72251 -1.5468,-1.5468 l -1.54679,-1.4987 1.4987,1.5468 c 1.39194,1.43662 1.59489,1.62732 1.59489,1.4987 z"
           style="fill:#000008;fill-opacity:0.9848485;stroke:#000000;stroke-width:0.33406621;stroke-miterlimit:4;stroke-dasharray:none;stroke-dashoffset:0;stroke-opacity:1" />
      </g>
      <text
         xml:space="preserve"
         style="font-style:normal;font-weight:normal;font-size:6.59511995px;line-height:1.25;font-family:sans-serif;letter-spacing:0px;word-spacing:0px;fill:#000000;fill-opacity:1;stroke:none;stroke-width:0.164878"
         x="101.48203"
         y="125.99341"
         id="text6939"><tspan
           sodipodi:role="line"
           id="tspan6937"
           x="101.48203"
           y="125.99341"
           style="stroke-width:0.164878">T<tspan
   style="font-size:4.28682756px;baseline-shift:sub;stroke-width:0.164878"
   id="tspan6941">0</tspan></tspan></text>
      <text
         xml:space="preserve"
         style="font-style:normal;font-weight:normal;font-size:10.58333302px;line-height:1.25;font-family:sans-serif;letter-spacing:0px;word-spacing:0px;fill:#000000;fill-opacity:1;stroke:none;stroke-width:0.26458332"
         x="126.09776"
         y="127.40412"
         id="text6945"><tspan
           sodipodi:role="line"
           id="tspan6943"
           x="126.09776"
           y="136.76788"
           style="stroke-width:0.26458332" /></text>
      <text
         xml:space="preserve"
         style="font-style:normal;font-weight:normal;font-size:6.59511995px;line-height:1.25;font-family:sans-serif;letter-spacing:0px;word-spacing:0px;fill:#000000;fill-opacity:1;stroke:none;stroke-width:0.16487801"
         x="161.59753"
         y="133.79541"
         id="text6939-2"><tspan
           sodipodi:role="line"
           id="tspan6937-6"
           x="161.59753"
           y="133.79541"
           style="stroke-width:0.16487801">T<tspan
   style="font-size:64.99999762%;baseline-shift:sub"
   id="tspan6988">1</tspan></tspan></text>
      <text
         xml:space="preserve"
         style="font-style:normal;font-weight:normal;font-size:6.59511995px;line-height:1.25;font-family:sans-serif;letter-spacing:0px;word-spacing:0px;fill:#000000;fill-opacity:1;stroke:none;stroke-width:0.16487801"
         x="126.23776"
         y="186.08669"
         id="text6939-8"><tspan
           sodipodi:role="line"
           id="tspan6937-7"
           x="126.23776"
           y="186.08669"
           style="stroke-width:0.16487801">T<tspan
   style="font-size:65%;baseline-shift:sub"
   id="tspan928">3</tspan></tspan></text>
      <text
         xml:space="preserve"
         style="font-style:normal;font-weight:normal;font-size:6.59511995px;line-height:1.25;font-family:sans-serif;letter-spacing:0px;word-spacing:0px;fill:#000000;fill-opacity:1;stroke:none;stroke-width:0.16487801"
         x="65.714569"
         y="173.64529"
         id="text6939-20"
         inkscape:export-xdpi="96"
         inkscape:export-ydpi="96"><tspan
           sodipodi:role="line"
           id="tspan6937-2"
           x="65.714569"
           y="173.64529"
           style="stroke-width:0.16487801">T<tspan
   style="font-size:65%;baseline-shift:sub"
   id="tspan930">2</tspan></tspan></text>
    </g>
    <text
       xml:space="preserve"
       style="font-style:normal;font-weight:normal;font-size:7.9707346px;line-height:1.25;font-family:sans-serif;letter-spacing:0px;word-spacing:0px;fill:#000000;fill-opacity:1;stroke:none;stroke-width:0.19926836"
       x="139.06146"
       y="93.032761"
       id="text11302"
       transform="matrix(0.97986068,0.20107638,-0.2012531,0.97925427,0,0)"><tspan
         sodipodi:role="line"
         id="tspan11300"
         x="139.06146"
         y="93.032761"
         style="stroke-width:0.19926836">Front</tspan></text>
    <text
       xml:space="preserve"
       style="font-style:normal;font-weight:normal;font-size:7.9707346px;line-height:1.25;font-family:sans-serif;letter-spacing:0px;word-spacing:0px;fill:#000000;fill-opacity:1;stroke:none;stroke-width:0.19926834"
       x="104.58276"
       y="171.20595"
       id="text11302-8"
       transform="matrix(0.97986067,0.20107638,-0.2012531,0.97925428,0,0)"><tspan
         sodipodi:role="line"
         id="tspan11300-4"
         x="104.58276"
         y="171.20595"
         style="stroke-width:0.19926834">Back</tspan></text>
  </g>
</svg>
